<svg xmlns="http://www.w3.org/2000/svg" version="1.1" xmlns:xlink="http://www.w3.org/1999/xlink" xmlns:svgjs="http://svgjs.dev/svgjs" width="1000" height="285" viewBox="0 0 1000 285"><g transform="matrix(1,0,0,1,-0.6060606060606233,-0.1784780310131282)"><svg viewBox="0 0 396 113" data-background-color="#ffffff" preserveAspectRatio="xMidYMid meet" height="285" width="1000" xmlns="http://www.w3.org/2000/svg" xmlns:xlink="http://www.w3.org/1999/xlink"><g id="tight-bounds" transform="matrix(1,0,0,1,0.2400000000000091,0.07076497369993717)"><svg viewBox="0 0 395.52 112.85847005260014" height="112.85847005260014" width="395.52"><g><svg viewBox="0 0 598.142047289396 170.6750514037501" height="112.85847005260014" width="395.52"><g transform="matrix(1,0,0,1,202.622047289396,30.054770189253958)"><svg viewBox="0 0 395.52 110.56551102524219" height="110.56551102524219" width="395.52"><g><svg viewBox="0 0 395.52 110.56551102524219" height="110.56551102524219" width="395.52"><g><svg viewBox="0 0 395.52 67.66252369077306" height="67.66252369077306" width="395.52"><g transform="matrix(1,0,0,1,0,0)"><svg width="395.52" viewBox="1.95 -33.9 200.48000000000002 34.3" height="67.66252369077306" data-palette-color="#ff0000"><g class="undefined-text-0" data-fill-palette-color="primary" id="text-0"><path d="M24.2-9.8L24.2-9.8Q24.2-5.25 20.85-2.43 17.5 0.4 11.95 0.4L11.95 0.4Q6 0.4 2.25-1.7L2.25-1.7 2.25-9.45Q6.8-6.15 11.95-6.15L11.95-6.15Q13.7-6.15 14.85-7.08 16-8 16-9.5L16-9.5Q16-10 15.85-10.45 15.7-10.9 15.3-11.3 14.9-11.7 14.53-11.98 14.15-12.25 13.43-12.63 12.7-13 12.2-13.25 11.7-13.5 10.73-13.95 9.75-14.4 9.15-14.65L9.15-14.65Q5.9-16.15 3.93-18.35 1.95-20.55 1.95-24.2L1.95-24.2Q1.95-28.55 5.15-31.23 8.35-33.9 14-33.9L14-33.9Q19.05-33.9 22.7-32.2L22.7-32.2 22.7-25Q18.65-27.35 14.3-27.35L14.3-27.35Q12.35-27.35 11.33-26.55 10.3-25.75 10.3-24.5 10.3-23.25 11.55-22.28 12.8-21.3 15.3-20.2L15.3-20.2Q16.85-19.5 17.88-18.98 18.9-18.45 20.23-17.53 21.55-16.6 22.33-15.58 23.1-14.55 23.65-13.05 24.2-11.55 24.2-9.8ZM52.3-12.8L52.3-12.8Q52.3-7.05 49.02-3.33 45.75 0.4 39.9 0.4L39.9 0.4Q33.95 0.4 30.7-3.18 27.45-6.75 27.45-12.35L27.45-12.35Q27.45-18.2 30.85-21.98 34.25-25.75 39.9-25.75L39.9-25.75Q45.8-25.75 49.05-22.1 52.3-18.45 52.3-12.8ZM36.25-17.95Q35.05-15.9 35.05-12.65 35.05-9.4 36.27-7.33 37.5-5.25 39.95-5.25L39.95-5.25Q42.35-5.25 43.52-7.28 44.7-9.3 44.7-12.55L44.7-12.55Q44.7-20 39.85-20L39.85-20Q37.45-20 36.25-17.95ZM80.3-16.45L80.3 0 73 0 73-15.1Q73-17.35 71.95-18.53 70.9-19.7 69-19.7L69-19.7Q67-19.7 65.67-18.13 64.34-16.55 64.34-13.4L64.34-13.4 64.34 0 57.05 0 57.05-25.35 64.34-25.35 64.34-21.05Q65.3-23.15 67.27-24.38 69.25-25.6 72-25.6L72-25.6Q75.9-25.6 78.09-23.28 80.3-20.95 80.3-16.45L80.3-16.45ZM100.84 0L100.84 0 86.29 0 86.29-33.7 99.39-33.7Q104.94-33.7 107.84-31.08 110.74-28.45 110.74-24.4L110.74-24.4Q110.74-21.75 109.34-19.75 107.94-17.75 105.69-17.05L105.69-17.05Q111.54-15.3 111.54-9.15L111.54-9.15Q111.54-5.15 108.67-2.58 105.79 0 100.84 0ZM98.09-27.55L98.09-27.55 93.99-27.55 93.99-20 96.84-20Q99.84-20 101.37-21.1 102.89-22.2 102.89-24L102.89-24Q102.89-27.55 98.09-27.55ZM98.09-13.95L98.09-13.95 93.99-13.95 93.99-6.15 98.04-6.15Q103.74-6.15 103.74-10.05 103.74-13.95 98.09-13.95ZM125.59-5L125.59-5Q127.14-5 127.99-5.95 128.84-6.9 128.84-8.55L128.84-8.55 128.84-10.4 126.49-10.4Q124.64-10.4 123.64-9.6 122.64-8.8 122.64-7.55L122.64-7.55Q122.64-5 125.59-5ZM129.19 0L129.19-3.1Q127.59 0.15 122.89 0.15L122.89 0.15Q119.19 0.15 117.12-1.95 115.04-4.05 115.04-7.2L115.04-7.2Q115.04-10.85 117.72-12.88 120.39-14.9 125.64-14.9L125.64-14.9 128.84-14.9 128.84-16.65Q128.84-19.85 124.59-19.85L124.59-19.85Q120.49-19.85 116.99-17.55L116.99-17.55 116.99-24.1Q119.99-25.8 125.64-25.8L125.64-25.8Q131.04-25.8 133.69-23.48 136.34-21.15 136.34-16.25L136.34-16.25 136.34 0 129.19 0ZM149.34-12.65L149.34 0 142.04 0 142.09-25.35 149.34-25.35 149.34-20.65Q150.04-22.85 151.66-24.18 153.29-25.5 155.44-25.5L155.44-25.5Q156.64-25.5 157.34-25.3L157.34-25.3 157.34-18.4Q156.14-18.95 154.59-18.95L154.59-18.95Q152.24-18.95 150.79-17.23 149.34-15.5 149.34-12.65L149.34-12.65ZM177.89-7.65L177.89-7.65Q177.89-3.9 175.19-1.85 172.49 0.2 168.03 0.2L168.03 0.2Q163.44 0.2 160.34-1.35L160.34-1.35 160.34-7.85Q163.78-5.45 167.64-5.45L167.64-5.45Q170.39-5.45 170.39-7.2L170.39-7.2Q170.39-7.65 170.14-8.05 169.89-8.45 169.28-8.8 168.69-9.15 168.19-9.38 167.69-9.6 166.74-10 165.78-10.4 165.28-10.65L165.28-10.65Q160.24-13.05 160.24-17.85L160.24-17.85Q160.24-21.55 163.06-23.6 165.89-25.65 170.09-25.65L170.09-25.65Q173.99-25.65 176.59-24.6L176.59-24.6 176.59-18.35Q173.94-19.9 170.39-19.9L170.39-19.9Q169.09-19.9 168.39-19.38 167.69-18.85 167.69-18.05L167.69-18.05Q167.69-17.6 167.94-17.2 168.19-16.8 168.76-16.45 169.34-16.1 169.86-15.83 170.39-15.55 171.31-15.15 172.24-14.75 172.78-14.45L172.78-14.45Q175.09-13.25 176.49-11.68 177.89-10.1 177.89-7.65ZM191.68-5L191.68-5Q193.23-5 194.08-5.95 194.93-6.9 194.93-8.55L194.93-8.55 194.93-10.4 192.58-10.4Q190.73-10.4 189.73-9.6 188.73-8.8 188.73-7.55L188.73-7.55Q188.73-5 191.68-5ZM195.28 0L195.28-3.1Q193.68 0.15 188.98 0.15L188.98 0.15Q185.28 0.15 183.21-1.95 181.13-4.05 181.13-7.2L181.13-7.2Q181.13-10.85 183.81-12.88 186.48-14.9 191.73-14.9L191.73-14.9 194.93-14.9 194.93-16.65Q194.93-19.85 190.68-19.85L190.68-19.85Q186.58-19.85 183.08-17.55L183.08-17.55 183.08-24.1Q186.08-25.8 191.73-25.8L191.73-25.8Q197.13-25.8 199.78-23.48 202.43-21.15 202.43-16.25L202.43-16.25 202.43 0 195.28 0Z" fill="#ff0000" data-fill-palette-color="primary"></path></g></svg></g></svg></g><g transform="matrix(1,0,0,1,163.310208,83.636021633596)"><svg viewBox="0 0 232.209792 26.929489391646197" height="26.929489391646197" width="232.209792"><g transform="matrix(1,0,0,1,0,0)"><svg width="232.209792" viewBox="5.05 -35.1 305.21999999999997 35.4" height="26.929489391646197" data-palette-color="#0360ae"><path d="M16.65-16.7Q20.05-16.15 21.88-14.18 23.7-12.2 23.7-8.85L23.7-8.85Q23.7-4.5 20.55-2.18 17.4 0.15 11.4 0.15L11.4 0.15Q7.9 0.15 5.05 0L5.05 0 5.2-9.7 5.05-31.95 12.65-32Q16.85-32 19.15-30.05 21.45-28.1 21.45-24.45L21.45-24.45Q21.45-21.55 20.2-19.6 18.95-17.65 16.65-16.7L16.65-16.7ZM18.8-24.2Q18.8-26.95 17.18-28.38 15.55-29.8 12.4-29.8L12.4-29.8 7.7-29.8 7.6-17.6 13.6-17.5Q16.15-18.05 17.48-19.73 18.8-21.4 18.8-24.2L18.8-24.2ZM11.6-2.05Q16.15-2.05 18.63-3.85 21.1-5.65 21.1-9L21.1-9Q21.1-11.8 19.3-13.4 17.5-15 14.1-15.35L14.1-15.35 7.6-15.3 7.55-9.85 7.65-2.2Q9.6-2.05 11.6-2.05L11.6-2.05ZM49.6-2.5L49.95-2.25 49.65-0.6Q48.45 0.1 47.1 0.2L47.1 0.2Q45.65 0.1 44.85-0.8 44.05-1.7 43.85-3.55L43.85-3.55 43.65-3.55Q40.25-0.15 36.65 0.25L36.65 0.25Q33.35 0.25 31.6-1.5 29.85-3.25 29.85-6.55L29.85-6.55 29.9-12 29.8-22.55 32.4-22.85 32.25-7.05Q32.25-4.65 33.37-3.33 34.5-2 36.65-2L36.65-2Q40.25-2 43.75-5.75L43.75-5.75 43.75-22.55 46.2-22.85 46.1-4.45Q46.1-3.15 46.47-2.58 46.85-2 47.7-2L47.7-2Q48.6-2 49.6-2.5L49.6-2.5ZM55.65 0L55.75-9.75 55.7-22.55 58.2-22.85 58.15-9.9 58.2 0 55.65 0ZM56.95-32.4Q57.75-32.4 58.17-31.95 58.6-31.5 58.6-30.75L58.6-30.75Q58.6-29.95 58.15-29.48 57.7-29 56.9-29L56.9-29Q56.1-29 55.67-29.43 55.25-29.85 55.25-30.65L55.25-30.65Q55.25-31.45 55.7-31.93 56.15-32.4 56.95-32.4L56.95-32.4ZM70.09-35.1L69.89-9.9 70.04 0 67.49 0 67.64-9.75 67.49-34.85 70.09-35.1ZM95.44-35.1L95.24-9.9 95.34-4.35Q95.34-3.05 95.69-2.53 96.04-2 96.94-2L96.94-2Q97.79-2 98.79-2.5L98.79-2.5 99.14-2.25 98.84-0.6Q97.64 0.15 96.29 0.2L96.29 0.2Q93.44 0.1 93.19-3.35L93.19-3.35 92.94-3.35Q91.39-1.8 89.94-0.95 88.49-0.1 86.69 0.25L86.69 0.25Q82.19 0.25 79.69-2.75 77.19-5.75 77.19-11.15L77.19-11.15Q77.19-16.85 80.04-19.98 82.89-23.1 88.04-23.1L88.04-23.1Q90.19-23.1 92.89-22.45L92.89-22.45 92.89-34.85 95.44-35.1ZM87.79-21.15Q83.94-21.15 81.79-18.65 79.64-16.15 79.64-11.5L79.64-11.5Q79.64-7 81.49-4.5 83.34-2 86.59-2L86.59-2Q88.34-2 89.89-2.88 91.44-3.75 92.94-5.65L92.94-5.65 92.99-9.7 92.89-20.05Q90.24-21.15 87.79-21.15L87.79-21.15ZM114.04-14.55L114.34-14.3 114.34-12.55 102.19-10.85 101.89-11.15 101.89-12.9 114.04-14.55ZM133.19-32.2Q137.89-32.2 142.39-29.7L142.39-29.7 141.79-27.3 141.39-27.25Q136.89-29.95 132.89-29.95L132.89-29.95Q126.89-29.95 123.76-26.33 120.64-22.7 120.64-15.6L120.64-15.6Q120.64-8.8 123.44-5.4 126.24-2 131.74-2L131.74-2Q133.64-2 135.31-2.27 136.99-2.55 139.64-3.3L139.64-3.3 139.69-7.95 139.64-12.55 142.14-12.75 142.09-8.25 142.19-1.5Q138.84-0.55 136.51-0.15 134.19 0.25 131.69 0.3L131.69 0.3Q124.94 0.3 121.46-3.8 117.99-7.9 117.99-15.5L117.99-15.5Q117.99-23.55 121.94-27.88 125.89-32.2 133.19-32.2L133.19-32.2ZM158.73-22.8Q159.33-22.8 160.03-22.7L160.03-22.7 160.03-20.2 159.68-20.1Q158.78-20.25 158.08-20.25L158.08-20.25Q156.38-20.25 154.88-18.82 153.38-17.4 151.83-14.2L151.83-14.2 151.83-9.9 151.98 0 149.38 0 149.53-9.75 149.43-22.55 151.88-22.85 151.88-17.75 152.13-17.75Q154.98-22.8 158.73-22.8L158.73-22.8ZM172.63-23.1Q177.13-23.1 179.66-20.08 182.18-17.05 182.18-11.65L182.18-11.65Q182.18-6 179.53-2.85 176.88 0.3 172.18 0.3L172.18 0.3Q167.68 0.3 165.18-2.73 162.68-5.75 162.68-11.1L162.68-11.1Q162.68-16.75 165.31-19.93 167.93-23.1 172.63-23.1L172.63-23.1ZM172.53-21.15Q169.03-21.15 167.08-18.65 165.13-16.15 165.13-11.6L165.13-11.6Q165.13-6.8 167.01-4.23 168.88-1.65 172.28-1.65L172.28-1.65Q175.83-1.65 177.78-4.13 179.73-6.6 179.73-11.15L179.73-11.15Q179.73-15.95 177.83-18.55 175.93-21.15 172.53-21.15L172.53-21.15ZM187.28-22.9L187.83-20.25 192.73-3 192.98-3 198.53-20.15 199.28-22.75 201.88-22.75 202.43-20.25 207.28-3 207.53-3 213.13-20.15 213.83-22.75 216.23-22.75 208.53 0 205.98 0 200.58-19.2 200.28-19.2 194.03 0 191.43 0 184.83-22.65 187.28-22.9ZM228.73-14.55L229.03-14.3 229.03-12.55 216.88-10.85 216.58-11.15 216.58-12.9 228.73-14.55ZM250.97-2.35L251.17-2.05 250.92 0 234.07 0 234.22-9.7 234.07-31.95 250.87-31.95 251.07-31.65 250.77-29.6 243.32-29.7 236.72-29.65 236.62-17.6 242.87-17.55 248.22-17.6 248.42-17.35 248.17-15.3 236.62-15.35 236.57-9.85 236.67-2.25 243.12-2.2 250.97-2.35ZM262.52-23.1Q265.57-23.1 267.27-21.55 268.97-20 268.97-17.25L268.97-17.25Q268.97-16.2 268.87-14.48 268.77-12.75 268.72-10.8L268.72-10.8Q268.42-5.1 268.42-4.35L268.42-4.35Q268.42-3.05 268.8-2.53 269.17-2 270.07-2L270.07-2Q270.97-2 271.97-2.5L271.97-2.5 272.32-2.25 272.02-0.6Q270.82 0.15 269.47 0.2L269.47 0.2Q266.47 0.1 266.32-3.55L266.32-3.55 266.07-3.55Q263.22-0.3 260.17 0.3L260.17 0.3Q257.17 0.3 255.47-1.28 253.77-2.85 253.77-5.65L253.77-5.65Q253.77-9.7 258.17-10.7L258.17-10.7 266.47-12.65 266.57-16.7Q266.57-18.85 265.42-19.98 264.27-21.1 262.17-21.1L262.17-21.1Q258.97-21.1 255.17-17.85L255.17-17.85 254.87-18 254.47-19.85Q258.57-23.1 262.52-23.1L262.52-23.1ZM266.42-10.8L258.67-8.95Q256.12-8.35 256.12-5.95L256.12-5.95Q256.12-4.05 257.17-2.98 258.22-1.9 260.07-1.9L260.07-1.9Q261.57-1.9 263.15-2.95 264.72-4 266.22-5.95L266.22-5.95 266.42-10.8ZM287.12-22.8Q287.72-22.8 288.42-22.7L288.42-22.7 288.42-20.2 288.07-20.1Q287.17-20.25 286.47-20.25L286.47-20.25Q284.77-20.25 283.27-18.82 281.77-17.4 280.22-14.2L280.22-14.2 280.22-9.9 280.37 0 277.77 0 277.92-9.75 277.82-22.55 280.27-22.85 280.27-17.75 280.52-17.75Q283.37-22.8 287.12-22.8L287.12-22.8ZM307.67 0L307.82-15.75Q307.87-18.15 306.64-19.48 305.42-20.8 303.17-20.8L303.17-20.8Q301.37-20.8 299.47-19.73 297.57-18.65 295.82-16.65L295.82-16.65 295.77-9.9 295.92 0 293.32 0 293.47-9.75 293.37-22.55 295.82-22.85 295.82-19.2 296.07-19.2Q297.77-20.85 299.59-21.85 301.42-22.85 303.12-23.05L303.12-23.05Q306.57-23.05 308.42-21.28 310.27-19.5 310.22-16.25L310.22-16.25 310.17-9.85 310.27 0 307.67 0Z" opacity="1" transform="matrix(1,0,0,1,0,0)" fill="#0360ae" class="undefined-text-1" data-fill-palette-color="secondary" id="text-1"></path></svg></g></svg></g></svg></g></svg></g><g><svg viewBox="0 0 170.6750514037501 170.6750514037501" height="170.6750514037501" width="170.6750514037501"><g><svg></svg></g><g id="icon-0"><svg viewBox="0 0 170.6750514037501 170.6750514037501" height="170.6750514037501" width="170.6750514037501"><g><path d="M0 85.338c0-47.131 38.207-85.338 85.338-85.338 47.131 0 85.338 38.207 85.337 85.338 0 47.131-38.207 85.338-85.337 85.337-47.131 0-85.338-38.207-85.338-85.337zM85.338 164.573c43.761 0 79.236-35.475 79.235-79.235 0-43.761-35.475-79.236-79.235-79.236-43.761 0-79.236 35.475-79.236 79.236 0 43.761 35.475 79.236 79.236 79.235z" data-fill-palette-color="accent" fill="#ed2647" stroke="transparent"></path></g><g transform="matrix(1,0,0,1,47.62057441861432,35.79092584453957)"><svg viewBox="0 0 75.43390256652147 99.09319971467096" height="99.09319971467096" width="75.43390256652147"><g><svg xmlns="http://www.w3.org/2000/svg" xmlns:xlink="http://www.w3.org/1999/xlink" version="1.1" x="0" y="0" viewBox="14.5 3.3 71.1 93.39999999999999" enable-background="new 0 0 100 100" xml:space="preserve" height="99.09319971467096" width="75.43390256652147" class="icon-gn-0" data-fill-palette-color="accent" id="gn-0"><path d="M52.1 84.4v8.1h12.2c1.2 0 2.1 1 2.1 2.1s-1 2.1-2.1 2.1H35.7c-1.2 0-2.1-1-2.1-2.1s1-2.1 2.1-2.1h12.2v-8.1H18.7c-2.3 0-4.2-1.9-4.2-4.2V39.9c0-2.3 1.9-4.2 4.2-4.2H33c1.2 0 2.1 1 2.1 2.1s-1 2.1-2.1 2.1H18.7l0 17.6v22.7l31.2 0c0 0 0 0 0.1 0 0 0 0 0 0.1 0l31.2 0 0-40.3-14.2 0c-1.2 0-2.1-1-2.1-2.1s1-2.1 2.1-2.1h14.3c2.3 0 4.2 1.9 4.2 4.2v40.3c0 2.3-1.9 4.2-4.2 4.2H52.1zM50.2 3.3c3.5 0.1 6.3 3 6.2 6.5-0.1 2.7-1.8 5-4.2 5.8v52.9c0 1.2-1 2.1-2.1 2.1-1.2 0-2.1-1-2.1-2.1V15.6c-0.9-0.3-1.8-0.9-2.5-1.6-1.2-1.2-1.8-2.8-1.8-4.5 0.1-3.4 2.9-6.2 6.4-6.2L50.2 3.3zM50.1 7.5L50.1 7.5c-1.2 0-2.1 0.9-2.2 2.1 0 0.6 0.2 1.1 0.6 1.5 0.4 0.4 0.9 0.6 1.5 0.7l0.1 0c1.1 0 2.1-0.9 2.1-2.1C52.1 8.5 51.2 7.6 50.1 7.5zM57.2 58.6V25.9c0-3.8 3.1-6.9 6.9-6.9h4.8c0.9-2.5 3.2-4.2 6-4.2 3.5 0 6.4 2.9 6.4 6.4s-2.9 6.4-6.4 6.4c-2.8 0-5.1-1.8-6-4.2h-4.8c-1.5 0-2.6 1.2-2.6 2.6v32.7c0 1.2-1 2.1-2.1 2.1C58.2 60.8 57.2 59.8 57.2 58.6zM72.8 21.2c0 1.2 0.9 2.1 2.1 2.1 1.2 0 2.1-0.9 2.1-2.1S76.1 19 74.9 19C73.7 19 72.8 20 72.8 21.2zM38.5 58.6V25.9c0-1.5-1.2-2.6-2.6-2.6h-4.8c-0.9 2.5-3.2 4.2-6 4.2-3.5 0-6.4-2.9-6.4-6.4s2.9-6.4 6.4-6.4c2.8 0 5.1 1.8 6 4.2h4.8c3.8 0 6.9 3.1 6.9 6.9v32.7c0 1.2-1 2.1-2.1 2.1S38.5 59.8 38.5 58.6zM27.2 21.2c0-1.2-0.9-2.1-2.1-2.1S23 20 23 21.2s0.9 2.1 2.1 2.1S27.2 22.3 27.2 21.2z" fill="#ed2647" data-fill-palette-color="accent"></path></svg></g></svg></g></svg></g></svg></g></svg></g><defs></defs></svg><rect width="395.52" height="112.85847005260014" fill="none" stroke="none" visibility="hidden"></rect></g></svg></g></svg>